<?xml version="1.0" encoding="utf-8"?>
<!-- Generated by Mocodo 4.2.12 -->
<svg width="729" height="474" viewBox="0 0 729 474" xmlns="http://www.w3.org/2000/svg">
<rect x="0" y="0" width="729" height="474" fill="#ffffbf" stroke="none" stroke-width="0"/>

<!-- Association ORGANIZE -->
<g>
	<line x1="166" y1="169" x2="53" y2="51" stroke="#66bd63" stroke-width="2"/>
	<line x1="166" y1="51" x2="53" y2="51" stroke="#66bd63" stroke-width="2"/>
	<g>
		<path d="M79 26 a14 14 90 0 1 14 14 V51 h-80 V40 a14 14 90 0 1 14 -14" fill="#a6d96a" stroke="#a6d96a" stroke-width="0"/>
		<path d="M93 51 v11 a14 14 90 0 1 -14 14 H27 a14 14 90 0 1 -14 -14 V51 H80" fill="#d9ef8b" stroke="#d9ef8b" stroke-width="0"/>
		<rect x="13" y="26" width="80" height="50" fill="none" rx="14" stroke="#66bd63" stroke-width="2"/>
		<line x1="13" y1="51" x2="93" y2="51" stroke="#66bd63" stroke-width="1"/>
		<text x="20" y="43.75" fill="#000000" font-family="Verdana" font-size="12">ORGANIZE</text>
	</g>
	<text x="100" y="138.42" fill="#d73027" font-family="Verdana" font-size="12">0,N</text>
	<text x="108" y="68" fill="#d73027" font-family="Verdana" font-size="12">1,1</text>
</g>

<!-- Association WRITTEN_BY -->
<g>
	<line x1="294" y1="51" x2="410" y2="51" stroke="#66bd63" stroke-width="2"/>
	<line x1="410" y1="169" x2="410" y2="51" stroke="#66bd63" stroke-width="2"/>
	<g>
		<path d="M442 26 a14 14 90 0 1 14 14 V51 h-92 V40 a14 14 90 0 1 14 -14" fill="#a6d96a" stroke="#a6d96a" stroke-width="0"/>
		<path d="M456 51 v11 a14 14 90 0 1 -14 14 H378 a14 14 90 0 1 -14 -14 V51 H92" fill="#d9ef8b" stroke="#d9ef8b" stroke-width="0"/>
		<rect x="364" y="26" width="92" height="50" fill="none" rx="14" stroke="#66bd63" stroke-width="2"/>
		<line x1="364" y1="51" x2="456" y2="51" stroke="#66bd63" stroke-width="1"/>
		<text x="371" y="43.75" fill="#000000" font-family="Verdana" font-size="12">WRITTEN BY</text>
	</g>
	<text x="337" y="68" fill="#d73027" font-family="Verdana" font-size="12">0,N</text>
	<text x="384" y="110" fill="#d73027" font-family="Verdana" font-size="12">1,1</text>
</g>

<!-- Association PUBLISHED_BY -->
<g>
	<line x1="670" y1="51" x2="541" y2="51" stroke="#66bd63" stroke-width="2"/>
	<line x1="410" y1="169" x2="541" y2="51" stroke="#66bd63" stroke-width="2"/>
	<g>
		<path d="M580 26 a14 14 90 0 1 14 14 V51 h-106 V40 a14 14 90 0 1 14 -14" fill="#a6d96a" stroke="#a6d96a" stroke-width="0"/>
		<path d="M594 51 v11 a14 14 90 0 1 -14 14 H502 a14 14 90 0 1 -14 -14 V51 H106" fill="#d9ef8b" stroke="#d9ef8b" stroke-width="0"/>
		<rect x="488" y="26" width="106" height="50" fill="none" rx="14" stroke="#66bd63" stroke-width="2"/>
		<line x1="488" y1="51" x2="594" y2="51" stroke="#66bd63" stroke-width="1"/>
		<text x="496" y="43.75" fill="#000000" font-family="Verdana" font-size="12">PUBLISHED BY</text>
	</g>
	<text x="599" y="68" fill="#d73027" font-family="Verdana" font-size="12">0,N</text>
	<text x="460" y="138.92" fill="#d73027" font-family="Verdana" font-size="12">1,1</text>
</g>

<!-- Association WORKS -->
<g>
	<line x1="53" y1="296" x2="53" y2="169" stroke="#66bd63" stroke-width="2"/>
	<line x1="166" y1="169" x2="53" y2="169" stroke="#66bd63" stroke-width="2"/>
	<g>
		<path d="M70 144 a14 14 90 0 1 14 14 V169 h-62 V158 a14 14 90 0 1 14 -14" fill="#a6d96a" stroke="#a6d96a" stroke-width="0"/>
		<path d="M84 169 v11 a14 14 90 0 1 -14 14 H36 a14 14 90 0 1 -14 -14 V169 H62" fill="#d9ef8b" stroke="#d9ef8b" stroke-width="0"/>
		<rect x="22" y="144" width="62" height="50" fill="none" rx="14" stroke="#66bd63" stroke-width="2"/>
		<line x1="22" y1="169" x2="84" y2="169" stroke="#66bd63" stroke-width="1"/>
		<text x="30" y="161.75" fill="#000000" font-family="Verdana" font-size="12">WORKS</text>
	</g>
	<text x="58" y="237" fill="#d73027" font-family="Verdana" font-size="12">1,1</text>
	<text x="100" y="186" fill="#d73027" font-family="Verdana" font-size="12">1,N</text>
</g>

<!-- Association HOLDS -->
<g>
	<line x1="166" y1="169" x2="294" y2="169" stroke="#66bd63" stroke-width="2"/>
	<line x1="410" y1="169" x2="294" y2="169" stroke="#66bd63" stroke-width="2"/>
	<g>
		<path d="M313 118 a14 14 90 0 1 14 14 V143 h-66 V132 a14 14 90 0 1 14 -14" fill="#a6d96a" stroke="#a6d96a" stroke-width="0"/>
		<path d="M327 143 v63 a14 14 90 0 1 -14 14 H275 a14 14 90 0 1 -14 -14 V143 H66" fill="#d9ef8b" stroke="#d9ef8b" stroke-width="0"/>
		<rect x="261" y="118" width="66" height="102" fill="none" rx="14" stroke="#66bd63" stroke-width="2"/>
		<line x1="261" y1="143" x2="327" y2="143" stroke="#66bd63" stroke-width="1"/>
		<text x="272" y="135.75" fill="#000000" font-family="Verdana" font-size="12">HOLDS</text>
		<text x="268" y="160.8" fill="#000000" font-family="Verdana" font-size="12">quantity</text>
		<text x="268" y="177.8" fill="#000000" font-family="Verdana" font-size="12">room</text>
		<text x="268" y="194.8" fill="#000000" font-family="Verdana" font-size="12">shelf</text>
		<text x="268" y="211.8" fill="#000000" font-family="Verdana" font-size="12">position</text>
	</g>
	<text x="210" y="186" fill="#d73027" font-family="Verdana" font-size="12">0,N</text>
	<text x="339" y="186" fill="#d73027" font-family="Verdana" font-size="12">1,1</text>
</g>

<!-- Association IS_LENDED -->
<g>
	<line x1="541" y1="296" x2="541" y2="169" stroke="#66bd63" stroke-width="2"/>
	<line x1="410" y1="169" x2="541" y2="169" stroke="#66bd63" stroke-width="2"/>
	<g>
		<path d="M568 144 a14 14 90 0 1 14 14 V169 h-82 V158 a14 14 90 0 1 14 -14" fill="#a6d96a" stroke="#a6d96a" stroke-width="0"/>
		<path d="M582 169 v11 a14 14 90 0 1 -14 14 H514 a14 14 90 0 1 -14 -14 V169 H82" fill="#d9ef8b" stroke="#d9ef8b" stroke-width="0"/>
		<rect x="500" y="144" width="82" height="50" fill="none" rx="14" stroke="#66bd63" stroke-width="2"/>
		<line x1="500" y1="169" x2="582" y2="169" stroke="#66bd63" stroke-width="1"/>
		<text x="507" y="161.75" fill="#000000" font-family="Verdana" font-size="12">IS LENDED</text>
	</g>
	<text x="546" y="237" fill="#d73027" font-family="Verdana" font-size="12">1,N</text>
	<text x="460" y="186" fill="#d73027" font-family="Verdana" font-size="12">0,N</text>
</g>

<!-- Association FROM_TO -->
<g>
	<line x1="166" y1="169" x2="166" y2="296" stroke="#66bd63" stroke-width="2"/>
	<line x1="294" y1="296" x2="166" y2="296" stroke="#66bd63" stroke-width="2"/>
	<g>
		<path d="M189 271 a14 14 90 0 1 14 14 V296 h-74 V285 a14 14 90 0 1 14 -14" fill="#a6d96a" stroke="#a6d96a" stroke-width="0"/>
		<path d="M203 296 v11 a14 14 90 0 1 -14 14 H143 a14 14 90 0 1 -14 -14 V296 H74" fill="#d9ef8b" stroke="#d9ef8b" stroke-width="0"/>
		<rect x="129" y="271" width="74" height="50" fill="none" rx="14" stroke="#66bd63" stroke-width="2"/>
		<line x1="129" y1="296" x2="203" y2="296" stroke="#66bd63" stroke-width="1"/>
		<text x="136" y="288.75" fill="#000000" font-family="Verdana" font-size="12">FROM_TO</text>
	</g>
	<text x="171" y="237" fill="#d73027" font-family="Verdana" font-size="12">0,N</text>
	<text x="237" y="313" fill="#d73027" font-family="Verdana" font-size="12">2,2</text>
</g>

<!-- Association ORDERED -->
<g>
	<line x1="294" y1="296" x2="410" y2="296" stroke="#66bd63" stroke-width="2"/>
	<line x1="410" y1="169" x2="410" y2="296" stroke="#66bd63" stroke-width="2"/>
	<g>
		<path d="M434 271 a14 14 90 0 1 14 14 V296 h-76 V285 a14 14 90 0 1 14 -14" fill="#a6d96a" stroke="#a6d96a" stroke-width="0"/>
		<path d="M448 296 v11 a14 14 90 0 1 -14 14 H386 a14 14 90 0 1 -14 -14 V296 H76" fill="#d9ef8b" stroke="#d9ef8b" stroke-width="0"/>
		<rect x="372" y="271" width="76" height="50" fill="none" rx="14" stroke="#66bd63" stroke-width="2"/>
		<line x1="372" y1="296" x2="448" y2="296" stroke="#66bd63" stroke-width="1"/>
		<text x="380" y="288.75" fill="#000000" font-family="Verdana" font-size="12">ORDERED</text>
	</g>
	<text x="330" y="313" fill="#d73027" font-family="Verdana" font-size="12">0,N</text>
	<text x="415" y="237" fill="#d73027" font-family="Verdana" font-size="12">1,N</text>
</g>

<!-- Association VIOLATE -->
<g>
	<line x1="670" y1="414" x2="670" y2="296" stroke="#66bd63" stroke-width="2"/>
	<line x1="541" y1="296" x2="670" y2="296" stroke="#66bd63" stroke-width="2"/>
	<g>
		<path d="M700 262 a14 14 90 0 1 14 14 V287 h-88 V276 a14 14 90 0 1 14 -14" fill="#a6d96a" stroke="#a6d96a" stroke-width="0"/>
		<path d="M714 287 v29 a14 14 90 0 1 -14 14 H640 a14 14 90 0 1 -14 -14 V287 H88" fill="#d9ef8b" stroke="#d9ef8b" stroke-width="0"/>
		<rect x="626" y="262" width="88" height="68" fill="none" rx="14" stroke="#66bd63" stroke-width="2"/>
		<line x1="626" y1="287" x2="714" y2="287" stroke="#66bd63" stroke-width="1"/>
		<text x="643" y="279.75" fill="#000000" font-family="Verdana" font-size="12">VIOLATE</text>
		<text x="633" y="304.8" fill="#000000" font-family="Verdana" font-size="12">delay</text>
		<text x="633" y="321.8" fill="#000000" font-family="Verdana" font-size="12">return_date</text>
	</g>
	<text x="675" y="355" fill="#d73027" font-family="Verdana" font-size="12">0,N</text>
	<text x="585" y="313" fill="#d73027" font-family="Verdana" font-size="12">1,1</text>
</g>

<!-- Association DOES -->
<g>
	<line x1="53" y1="296" x2="53" y2="414" stroke="#66bd63" stroke-width="2"/>
	<line x1="166" y1="414" x2="53" y2="414" stroke="#66bd63" stroke-width="2"/>
	<g>
		<path d="M64 389 a14 14 90 0 1 14 14 V414 h-50 V403 a14 14 90 0 1 14 -14" fill="#a6d96a" stroke="#a6d96a" stroke-width="0"/>
		<path d="M78 414 v11 a14 14 90 0 1 -14 14 H42 a14 14 90 0 1 -14 -14 V414 H50" fill="#d9ef8b" stroke="#d9ef8b" stroke-width="0"/>
		<rect x="28" y="389" width="50" height="50" fill="none" rx="14" stroke="#66bd63" stroke-width="2"/>
		<line x1="28" y1="414" x2="78" y2="414" stroke="#66bd63" stroke-width="1"/>
		<text x="36" y="406.75" fill="#000000" font-family="Verdana" font-size="12">DOES</text>
	</g>
	<text x="58" y="364" fill="#d73027" font-family="Verdana" font-size="12">0,N</text>
	<text x="92" y="431" fill="#d73027" font-family="Verdana" font-size="12">1,1</text>
</g>

<!-- Association TRANSFERED -->
<g>
	<line x1="166" y1="414" x2="294" y2="414" stroke="#66bd63" stroke-width="2"/>
	<line x1="294" y1="296" x2="294" y2="414" stroke="#66bd63" stroke-width="2"/>
	<g>
		<path d="M328 389 a14 14 90 0 1 14 14 V414 h-96 V403 a14 14 90 0 1 14 -14" fill="#a6d96a" stroke="#a6d96a" stroke-width="0"/>
		<path d="M342 414 v11 a14 14 90 0 1 -14 14 H260 a14 14 90 0 1 -14 -14 V414 H96" fill="#d9ef8b" stroke="#d9ef8b" stroke-width="0"/>
		<rect x="246" y="389" width="96" height="50" fill="none" rx="14" stroke="#66bd63" stroke-width="2"/>
		<line x1="246" y1="414" x2="342" y2="414" stroke="#66bd63" stroke-width="1"/>
		<text x="253" y="406.75" fill="#000000" font-family="Verdana" font-size="12">TRANSFERED</text>
	</g>
	<text x="219" y="431" fill="#d73027" font-family="Verdana" font-size="12">0,N</text>
	<text x="299" y="338" fill="#d73027" font-family="Verdana" font-size="12">1,1</text>
</g>

<!-- Association LENDS -->
<g>
	<line x1="670" y1="414" x2="541" y2="414" stroke="#66bd63" stroke-width="2"/>
	<line x1="541" y1="296" x2="541" y2="414" stroke="#66bd63" stroke-width="2"/>
	<g>
		<path d="M555 389 a14 14 90 0 1 14 14 V414 h-56 V403 a14 14 90 0 1 14 -14" fill="#a6d96a" stroke="#a6d96a" stroke-width="0"/>
		<path d="M569 414 v11 a14 14 90 0 1 -14 14 H527 a14 14 90 0 1 -14 -14 V414 H56" fill="#d9ef8b" stroke="#d9ef8b" stroke-width="0"/>
		<rect x="513" y="389" width="56" height="50" fill="none" rx="14" stroke="#66bd63" stroke-width="2"/>
		<line x1="513" y1="414" x2="569" y2="414" stroke="#66bd63" stroke-width="1"/>
		<text x="520" y="406.75" fill="#000000" font-family="Verdana" font-size="12">LENDS</text>
	</g>
	<text x="593" y="431" fill="#d73027" font-family="Verdana" font-size="12">0,N</text>
	<text x="546" y="364" fill="#d73027" font-family="Verdana" font-size="12">1,1</text>
</g>

<!-- Entity EVENTS -->
<g>
	<g>
		<rect x="134" y="9" width="64" height="25" fill="#fdae61" stroke="none" stroke-width="0" opacity="1"/>
		<rect x="134" y="34" width="64" height="59" fill="#fee08b" stroke="none" stroke-width="0" opacity="1"/>
		<rect x="134" y="9" width="64" height="84" fill="none" stroke="#f46d43" stroke-width="2" opacity="1"/>
		<line x1="134" y1="34" x2="198" y2="34" stroke="#f46d43" stroke-width="1"/>
	</g>
	<text x="142" y="26.75" fill="#000000" font-family="Verdana" font-size="12">EVENTS</text>
	<text x="139" y="51.8" fill="#000000" font-family="Verdana" font-size="12">id_event</text>
	<line x1="139" y1="54" x2="192" y2="54" stroke="#000000" stroke-width="1"/>
	<text x="139" y="68.8" fill="#000000" font-family="Verdana" font-size="12">type</text>
	<text x="139" y="85.8" fill="#000000" font-family="Verdana" font-size="12">date</text>
</g>

<!-- Entity AUTHORS -->
<g>
	<g>
		<rect x="256" y="9" width="76" height="25" fill="#fdae61" stroke="none" stroke-width="0" opacity="1"/>
		<rect x="256" y="34" width="76" height="59" fill="#fee08b" stroke="none" stroke-width="0" opacity="1"/>
		<rect x="256" y="9" width="76" height="84" fill="none" stroke="#f46d43" stroke-width="2" opacity="1"/>
		<line x1="256" y1="34" x2="332" y2="34" stroke="#f46d43" stroke-width="1"/>
	</g>
	<text x="264" y="26.75" fill="#000000" font-family="Verdana" font-size="12">AUTHORS</text>
	<text x="261" y="51.8" fill="#000000" font-family="Verdana" font-size="12">id_author</text>
	<line x1="261" y1="54" x2="320" y2="54" stroke="#000000" stroke-width="1"/>
	<text x="261" y="68.8" fill="#000000" font-family="Verdana" font-size="12">first_name</text>
	<text x="261" y="85.8" fill="#000000" font-family="Verdana" font-size="12">last_name</text>
</g>

<!-- Entity PUBLISHERS -->
<g>
	<g>
		<rect x="626" y="17" width="88" height="25" fill="#fdae61" stroke="none" stroke-width="0" opacity="1"/>
		<rect x="626" y="42" width="88" height="43" fill="#fee08b" stroke="none" stroke-width="0" opacity="1"/>
		<rect x="626" y="17" width="88" height="68" fill="none" stroke="#f46d43" stroke-width="2" opacity="1"/>
		<line x1="626" y1="42" x2="714" y2="42" stroke="#f46d43" stroke-width="1"/>
	</g>
	<text x="631" y="34.75" fill="#000000" font-family="Verdana" font-size="12">PUBLISHERS</text>
	<text x="631" y="59.8" fill="#000000" font-family="Verdana" font-size="12">id_publisher</text>
	<line x1="631" y1="62" x2="706" y2="62" stroke="#000000" stroke-width="1"/>
	<text x="631" y="76.8" fill="#000000" font-family="Verdana" font-size="12">name</text>
</g>

<!-- Entity LIBRARIES -->
<g>
	<g>
		<rect x="127" y="118" width="78" height="25" fill="#fdae61" stroke="none" stroke-width="0" opacity="1"/>
		<rect x="127" y="143" width="78" height="77" fill="#fee08b" stroke="none" stroke-width="0" opacity="1"/>
		<rect x="127" y="118" width="78" height="102" fill="none" stroke="#f46d43" stroke-width="2" opacity="1"/>
		<line x1="127" y1="143" x2="205" y2="143" stroke="#f46d43" stroke-width="1"/>
	</g>
	<text x="133" y="135.75" fill="#000000" font-family="Verdana" font-size="12">LIBRARIES</text>
	<text x="132" y="160.8" fill="#000000" font-family="Verdana" font-size="12">id_library</text>
	<line x1="132" y1="163" x2="190" y2="163" stroke="#000000" stroke-width="1"/>
	<text x="132" y="177.8" fill="#000000" font-family="Verdana" font-size="12">name</text>
	<text x="132" y="194.8" fill="#000000" font-family="Verdana" font-size="12">address</text>
	<text x="132" y="211.8" fill="#000000" font-family="Verdana" font-size="12">region</text>
</g>

<!-- Entity BOOKS -->
<g>
	<g>
		<rect x="365" y="118" width="90" height="25" fill="#fdae61" stroke="none" stroke-width="0" opacity="1"/>
		<rect x="365" y="143" width="90" height="77" fill="#fee08b" stroke="none" stroke-width="0" opacity="1"/>
		<rect x="365" y="118" width="90" height="102" fill="none" stroke="#f46d43" stroke-width="2" opacity="1"/>
		<line x1="365" y1="143" x2="455" y2="143" stroke="#f46d43" stroke-width="1"/>
	</g>
	<text x="388" y="135.75" fill="#000000" font-family="Verdana" font-size="12">BOOKS</text>
	<text x="370" y="160.8" fill="#000000" font-family="Verdana" font-size="12">isbn</text>
	<line x1="370" y1="163" x2="396" y2="163" stroke="#000000" stroke-width="1"/>
	<text x="370" y="177.8" fill="#000000" font-family="Verdana" font-size="12">title</text>
	<text x="370" y="194.8" fill="#000000" font-family="Verdana" font-size="12">release_date</text>
	<text x="370" y="211.8" fill="#000000" font-family="Verdana" font-size="12">collection</text>
</g>

<!-- Entity EMPLOYEES -->
<g>
	<g>
		<rect x="9" y="245" width="88" height="25" fill="#fdae61" stroke="none" stroke-width="0" opacity="1"/>
		<rect x="9" y="270" width="88" height="77" fill="#fee08b" stroke="none" stroke-width="0" opacity="1"/>
		<rect x="9" y="245" width="88" height="102" fill="none" stroke="#f46d43" stroke-width="2" opacity="1"/>
		<line x1="9" y1="270" x2="97" y2="270" stroke="#f46d43" stroke-width="1"/>
	</g>
	<text x="17" y="262.75" fill="#000000" font-family="Verdana" font-size="12">EMPLOYEES</text>
	<text x="14" y="287.8" fill="#000000" font-family="Verdana" font-size="12">id_employee</text>
	<line x1="14" y1="290" x2="92" y2="290" stroke="#000000" stroke-width="1"/>
	<text x="14" y="304.8" fill="#000000" font-family="Verdana" font-size="12">first_name</text>
	<text x="14" y="321.8" fill="#000000" font-family="Verdana" font-size="12">last_name</text>
	<text x="14" y="338.8" fill="#000000" font-family="Verdana" font-size="12">is_present</text>
</g>

<!-- Entity ORDERS -->
<g>
	<g>
		<rect x="263" y="271" width="62" height="25" fill="#fdae61" stroke="none" stroke-width="0" opacity="1"/>
		<rect x="263" y="296" width="62" height="25" fill="#fee08b" stroke="none" stroke-width="0" opacity="1"/>
		<rect x="263" y="271" width="62" height="50" fill="none" stroke="#f46d43" stroke-width="2" opacity="1"/>
		<line x1="263" y1="296" x2="325" y2="296" stroke="#f46d43" stroke-width="1"/>
	</g>
	<text x="268" y="288.75" fill="#000000" font-family="Verdana" font-size="12">ORDERS</text>
	<text x="268" y="313.8" fill="#000000" font-family="Verdana" font-size="12">id_order</text>
	<line x1="268" y1="316" x2="320" y2="316" stroke="#000000" stroke-width="1"/>
</g>

<!-- Entity LENDINGS -->
<g>
	<g>
		<rect x="502" y="245" width="78" height="25" fill="#fdae61" stroke="none" stroke-width="0" opacity="1"/>
		<rect x="502" y="270" width="78" height="77" fill="#fee08b" stroke="none" stroke-width="0" opacity="1"/>
		<rect x="502" y="245" width="78" height="102" fill="none" stroke="#f46d43" stroke-width="2" opacity="1"/>
		<line x1="502" y1="270" x2="580" y2="270" stroke="#f46d43" stroke-width="1"/>
	</g>
	<text x="509" y="262.75" fill="#000000" font-family="Verdana" font-size="12">LENDINGS</text>
	<text x="507" y="287.8" fill="#000000" font-family="Verdana" font-size="12">id_lending</text>
	<line x1="507" y1="290" x2="570" y2="290" stroke="#000000" stroke-width="1"/>
	<text x="507" y="304.8" fill="#000000" font-family="Verdana" font-size="12">begin_date</text>
	<text x="507" y="321.8" fill="#000000" font-family="Verdana" font-size="12">end_date</text>
	<text x="507" y="338.8" fill="#000000" font-family="Verdana" font-size="12">returned</text>
</g>

<!-- Entity TRANSFERTS -->
<g>
	<g>
		<rect x="118" y="372" width="96" height="25" fill="#fdae61" stroke="none" stroke-width="0" opacity="1"/>
		<rect x="118" y="397" width="96" height="59" fill="#fee08b" stroke="none" stroke-width="0" opacity="1"/>
		<rect x="118" y="372" width="96" height="84" fill="none" stroke="#f46d43" stroke-width="2" opacity="1"/>
		<line x1="118" y1="397" x2="214" y2="397" stroke="#f46d43" stroke-width="1"/>
	</g>
	<text x="126" y="389.75" fill="#000000" font-family="Verdana" font-size="12">TRANSFERTS</text>
	<text x="123" y="414.8" fill="#000000" font-family="Verdana" font-size="12">id_transfert</text>
	<line x1="123" y1="417" x2="195" y2="417" stroke="#000000" stroke-width="1"/>
	<text x="123" y="431.8" fill="#000000" font-family="Verdana" font-size="12">date_sent</text>
	<text x="123" y="448.8" fill="#000000" font-family="Verdana" font-size="12">date_received</text>
</g>

<!-- Entity SUBSCRIBERS -->
<g>
	<g>
		<rect x="620" y="363" width="100" height="25" fill="#fdae61" stroke="none" stroke-width="0" opacity="1"/>
		<rect x="620" y="388" width="100" height="77" fill="#fee08b" stroke="none" stroke-width="0" opacity="1"/>
		<rect x="620" y="363" width="100" height="102" fill="none" stroke="#f46d43" stroke-width="2" opacity="1"/>
		<line x1="620" y1="388" x2="720" y2="388" stroke="#f46d43" stroke-width="1"/>
	</g>
	<text x="626" y="380.75" fill="#000000" font-family="Verdana" font-size="12">SUBSCRIBERS</text>
	<text x="625" y="405.8" fill="#000000" font-family="Verdana" font-size="12">email</text>
	<line x1="625" y1="408" x2="659" y2="408" stroke="#000000" stroke-width="1"/>
	<text x="625" y="422.8" fill="#000000" font-family="Verdana" font-size="12">first_name</text>
	<text x="625" y="439.8" fill="#000000" font-family="Verdana" font-size="12">last_name</text>
	<text x="625" y="456.8" fill="#000000" font-family="Verdana" font-size="12">DOB</text>
</g>
</svg>