<?xml version="1.0" encoding="utf-8"?>
<!-- Generated by Mocodo 4.2.12 -->
<svg width="725" height="466" viewBox="0 0 725 466" xmlns="http://www.w3.org/2000/svg">
<rect x="0" y="0" width="725" height="466" fill="#ffffbf" stroke="none" stroke-width="0"/>

<!-- Association WRITTEN_BY -->
<g>
	<line x1="59" y1="60" x2="188" y2="60" stroke="#66bd63" stroke-width="2"/>
	<line x1="314" y1="60" x2="188" y2="60" stroke="#66bd63" stroke-width="2"/>
	<g>
		<path d="M220 35 a14 14 90 0 1 14 14 V60 h-92 V49 a14 14 90 0 1 14 -14" fill="#a6d96a" stroke="#a6d96a" stroke-width="0"/>
		<path d="M234 60 v11 a14 14 90 0 1 -14 14 H156 a14 14 90 0 1 -14 -14 V60 H92" fill="#d9ef8b" stroke="#d9ef8b" stroke-width="0"/>
		<rect x="142" y="35" width="92" height="50" fill="none" rx="14" stroke="#66bd63" stroke-width="2"/>
		<line x1="142" y1="60" x2="234" y2="60" stroke="#66bd63" stroke-width="1"/>
		<text x="149" y="52.75" fill="#000000" font-family="Verdana" font-size="12">WRITTEN BY</text>
	</g>
	<text x="102" y="77" fill="#d73027" font-family="Verdana" font-size="12">0,N</text>
	<text x="243" y="52" fill="#d73027" font-family="Verdana" font-size="12">1,1</text>
</g>

<!-- Association HOLDS -->
<g>
	<line x1="559" y1="161" x2="431" y2="60" stroke="#66bd63" stroke-width="2"/>
	<line x1="314" y1="60" x2="431" y2="60" stroke="#66bd63" stroke-width="2"/>
	<g>
		<path d="M450 9 a14 14 90 0 1 14 14 V34 h-66 V23 a14 14 90 0 1 14 -14" fill="#a6d96a" stroke="#a6d96a" stroke-width="0"/>
		<path d="M464 34 v63 a14 14 90 0 1 -14 14 H412 a14 14 90 0 1 -14 -14 V34 H66" fill="#d9ef8b" stroke="#d9ef8b" stroke-width="0"/>
		<rect x="398" y="9" width="66" height="102" fill="none" rx="14" stroke="#66bd63" stroke-width="2"/>
		<line x1="398" y1="34" x2="464" y2="34" stroke="#66bd63" stroke-width="1"/>
		<text x="409" y="26.75" fill="#000000" font-family="Verdana" font-size="12">HOLDS</text>
		<text x="405" y="51.8" fill="#000000" font-family="Verdana" font-size="12">quantity</text>
		<text x="405" y="68.8" fill="#000000" font-family="Verdana" font-size="12">room</text>
		<text x="405" y="85.8" fill="#000000" font-family="Verdana" font-size="12">shelf</text>
		<text x="405" y="102.8" fill="#000000" font-family="Verdana" font-size="12">position</text>
	</g>
	<text x="493" y="141.33" fill="#d73027" font-family="Verdana" font-size="12">0,N</text>
	<text x="364" y="52" fill="#d73027" font-family="Verdana" font-size="12">1,1</text>
</g>

<!-- Association ORGANIZE -->
<g>
	<line x1="559" y1="161" x2="559" y2="60" stroke="#66bd63" stroke-width="2"/>
	<line x1="672" y1="60" x2="559" y2="60" stroke="#66bd63" stroke-width="2"/>
	<g>
		<path d="M585 35 a14 14 90 0 1 14 14 V60 h-80 V49 a14 14 90 0 1 14 -14" fill="#a6d96a" stroke="#a6d96a" stroke-width="0"/>
		<path d="M599 60 v11 a14 14 90 0 1 -14 14 H533 a14 14 90 0 1 -14 -14 V60 H80" fill="#d9ef8b" stroke="#d9ef8b" stroke-width="0"/>
		<rect x="519" y="35" width="80" height="50" fill="none" rx="14" stroke="#66bd63" stroke-width="2"/>
		<line x1="519" y1="60" x2="599" y2="60" stroke="#66bd63" stroke-width="1"/>
		<text x="526" y="52.75" fill="#000000" font-family="Verdana" font-size="12">ORGANIZE</text>
	</g>
	<text x="564" y="102" fill="#d73027" font-family="Verdana" font-size="12">0,N</text>
	<text x="614" y="77" fill="#d73027" font-family="Verdana" font-size="12">1,1</text>
</g>

<!-- Association PUBLISHED_BY -->
<g>
	<line x1="59" y1="161" x2="188" y2="161" stroke="#66bd63" stroke-width="2"/>
	<line x1="314" y1="60" x2="188" y2="161" stroke="#66bd63" stroke-width="2"/>
	<g>
		<path d="M227 136 a14 14 90 0 1 14 14 V161 h-106 V150 a14 14 90 0 1 14 -14" fill="#a6d96a" stroke="#a6d96a" stroke-width="0"/>
		<path d="M241 161 v11 a14 14 90 0 1 -14 14 H149 a14 14 90 0 1 -14 -14 V161 H106" fill="#d9ef8b" stroke="#d9ef8b" stroke-width="0"/>
		<rect x="135" y="136" width="106" height="50" fill="none" rx="14" stroke="#66bd63" stroke-width="2"/>
		<line x1="135" y1="161" x2="241" y2="161" stroke="#66bd63" stroke-width="1"/>
		<text x="143" y="153.75" fill="#000000" font-family="Verdana" font-size="12">PUBLISHED BY</text>
	</g>
	<text x="108" y="178" fill="#d73027" font-family="Verdana" font-size="12">0,N</text>
	<text x="243" y="94.05" fill="#d73027" font-family="Verdana" font-size="12">1,1</text>
</g>

<!-- Association IS_LENDED -->
<g>
	<line x1="188" y1="288" x2="314" y2="161" stroke="#66bd63" stroke-width="2"/>
	<line x1="314" y1="60" x2="314" y2="161" stroke="#66bd63" stroke-width="2"/>
	<g>
		<path d="M341 136 a14 14 90 0 1 14 14 V161 h-82 V150 a14 14 90 0 1 14 -14" fill="#a6d96a" stroke="#a6d96a" stroke-width="0"/>
		<path d="M355 161 v11 a14 14 90 0 1 -14 14 H287 a14 14 90 0 1 -14 -14 V161 H82" fill="#d9ef8b" stroke="#d9ef8b" stroke-width="0"/>
		<rect x="273" y="136" width="82" height="50" fill="none" rx="14" stroke="#66bd63" stroke-width="2"/>
		<line x1="273" y1="161" x2="355" y2="161" stroke="#66bd63" stroke-width="1"/>
		<text x="280" y="153.75" fill="#000000" font-family="Verdana" font-size="12">IS LENDED</text>
	</g>
	<text x="232" y="258.66" fill="#d73027" font-family="Verdana" font-size="12">1,N</text>
	<text x="319" y="128" fill="#d73027" font-family="Verdana" font-size="12">0,N</text>
</g>

<!-- Association ORDERED -->
<g>
	<line x1="431" y1="288" x2="431" y2="161" stroke="#66bd63" stroke-width="2"/>
	<line x1="314" y1="60" x2="431" y2="161" stroke="#66bd63" stroke-width="2"/>
	<g>
		<path d="M455 136 a14 14 90 0 1 14 14 V161 h-76 V150 a14 14 90 0 1 14 -14" fill="#a6d96a" stroke="#a6d96a" stroke-width="0"/>
		<path d="M469 161 v11 a14 14 90 0 1 -14 14 H407 a14 14 90 0 1 -14 -14 V161 H76" fill="#d9ef8b" stroke="#d9ef8b" stroke-width="0"/>
		<rect x="393" y="136" width="76" height="50" fill="none" rx="14" stroke="#66bd63" stroke-width="2"/>
		<line x1="393" y1="161" x2="469" y2="161" stroke="#66bd63" stroke-width="1"/>
		<text x="401" y="153.75" fill="#000000" font-family="Verdana" font-size="12">ORDERED</text>
	</g>
	<text x="436" y="255" fill="#d73027" font-family="Verdana" font-size="12">0,N</text>
	<text x="364" y="97.19" fill="#d73027" font-family="Verdana" font-size="12">1,N</text>
</g>

<!-- Association WORKS -->
<g>
	<line x1="672" y1="288" x2="672" y2="161" stroke="#66bd63" stroke-width="2"/>
	<line x1="559" y1="161" x2="672" y2="161" stroke="#66bd63" stroke-width="2"/>
	<g>
		<path d="M689 136 a14 14 90 0 1 14 14 V161 h-62 V150 a14 14 90 0 1 14 -14" fill="#a6d96a" stroke="#a6d96a" stroke-width="0"/>
		<path d="M703 161 v11 a14 14 90 0 1 -14 14 H655 a14 14 90 0 1 -14 -14 V161 H62" fill="#d9ef8b" stroke="#d9ef8b" stroke-width="0"/>
		<rect x="641" y="136" width="62" height="50" fill="none" rx="14" stroke="#66bd63" stroke-width="2"/>
		<line x1="641" y1="161" x2="703" y2="161" stroke="#66bd63" stroke-width="1"/>
		<text x="649" y="153.75" fill="#000000" font-family="Verdana" font-size="12">WORKS</text>
	</g>
	<text x="677" y="229" fill="#d73027" font-family="Verdana" font-size="12">1,1</text>
	<text x="603" y="178" fill="#d73027" font-family="Verdana" font-size="12">1,N</text>
</g>

<!-- Association VIOLATE -->
<g>
	<line x1="59" y1="406" x2="59" y2="288" stroke="#66bd63" stroke-width="2"/>
	<line x1="188" y1="288" x2="59" y2="288" stroke="#66bd63" stroke-width="2"/>
	<g>
		<path d="M89 254 a14 14 90 0 1 14 14 V279 h-88 V268 a14 14 90 0 1 14 -14" fill="#a6d96a" stroke="#a6d96a" stroke-width="0"/>
		<path d="M103 279 v29 a14 14 90 0 1 -14 14 H29 a14 14 90 0 1 -14 -14 V279 H88" fill="#d9ef8b" stroke="#d9ef8b" stroke-width="0"/>
		<rect x="15" y="254" width="88" height="68" fill="none" rx="14" stroke="#66bd63" stroke-width="2"/>
		<line x1="15" y1="279" x2="103" y2="279" stroke="#66bd63" stroke-width="1"/>
		<text x="32" y="271.75" fill="#000000" font-family="Verdana" font-size="12">VIOLATE</text>
		<text x="22" y="296.8" fill="#000000" font-family="Verdana" font-size="12">delay</text>
		<text x="22" y="313.8" fill="#000000" font-family="Verdana" font-size="12">return_date</text>
	</g>
	<text x="64" y="347" fill="#d73027" font-family="Verdana" font-size="12">0,N</text>
	<text x="123" y="305" fill="#d73027" font-family="Verdana" font-size="12">1,1</text>
</g>

<!-- Association IS_MADE_FROM -->
<g>
	<line x1="431" y1="288" x2="314" y2="288" stroke="#66bd63" stroke-width="2"/>
	<line x1="188" y1="288" x2="314" y2="288" stroke="#66bd63" stroke-width="2"/>
	<g>
		<path d="M354 263 a14 14 90 0 1 14 14 V288 h-108 V277 a14 14 90 0 1 14 -14" fill="#a6d96a" stroke="#a6d96a" stroke-width="0"/>
		<path d="M368 288 v11 a14 14 90 0 1 -14 14 H274 a14 14 90 0 1 -14 -14 V288 H108" fill="#d9ef8b" stroke="#d9ef8b" stroke-width="0"/>
		<rect x="260" y="263" width="108" height="50" fill="none" rx="14" stroke="#66bd63" stroke-width="2"/>
		<line x1="260" y1="288" x2="368" y2="288" stroke="#66bd63" stroke-width="1"/>
		<text x="268" y="280.75" fill="#000000" font-family="Verdana" font-size="12">IS MADE FROM</text>
	</g>
	<text x="374" y="305" fill="#d73027" font-family="Verdana" font-size="12">1,1</text>
	<text x="232" y="305" fill="#d73027" font-family="Verdana" font-size="12">0,1</text>
</g>

<!-- Association FROM_TO -->
<g>
	<line x1="559" y1="161" x2="559" y2="288" stroke="#66bd63" stroke-width="2"/>
	<line x1="431" y1="288" x2="559" y2="288" stroke="#66bd63" stroke-width="2"/>
	<g>
		<path d="M582 263 a14 14 90 0 1 14 14 V288 h-74 V277 a14 14 90 0 1 14 -14" fill="#a6d96a" stroke="#a6d96a" stroke-width="0"/>
		<path d="M596 288 v11 a14 14 90 0 1 -14 14 H536 a14 14 90 0 1 -14 -14 V288 H74" fill="#d9ef8b" stroke="#d9ef8b" stroke-width="0"/>
		<rect x="522" y="263" width="74" height="50" fill="none" rx="14" stroke="#66bd63" stroke-width="2"/>
		<line x1="522" y1="288" x2="596" y2="288" stroke="#66bd63" stroke-width="1"/>
		<text x="529" y="280.75" fill="#000000" font-family="Verdana" font-size="12">FROM_TO</text>
	</g>
	<text x="564" y="229" fill="#d73027" font-family="Verdana" font-size="12">0,N</text>
	<text x="467" y="305" fill="#d73027" font-family="Verdana" font-size="12">2,2</text>
</g>

<!-- Association LENDS -->
<g>
	<line x1="59" y1="406" x2="188" y2="406" stroke="#66bd63" stroke-width="2"/>
	<line x1="188" y1="288" x2="188" y2="406" stroke="#66bd63" stroke-width="2"/>
	<g>
		<path d="M202 381 a14 14 90 0 1 14 14 V406 h-56 V395 a14 14 90 0 1 14 -14" fill="#a6d96a" stroke="#a6d96a" stroke-width="0"/>
		<path d="M216 406 v11 a14 14 90 0 1 -14 14 H174 a14 14 90 0 1 -14 -14 V406 H56" fill="#d9ef8b" stroke="#d9ef8b" stroke-width="0"/>
		<rect x="160" y="381" width="56" height="50" fill="none" rx="14" stroke="#66bd63" stroke-width="2"/>
		<line x1="160" y1="406" x2="216" y2="406" stroke="#66bd63" stroke-width="1"/>
		<text x="167" y="398.75" fill="#000000" font-family="Verdana" font-size="12">LENDS</text>
	</g>
	<text x="114" y="423" fill="#d73027" font-family="Verdana" font-size="12">0,N</text>
	<text x="193" y="356" fill="#d73027" font-family="Verdana" font-size="12">1,1</text>
</g>

<!-- Association TRANSFERED -->
<g>
	<line x1="559" y1="406" x2="431" y2="406" stroke="#66bd63" stroke-width="2"/>
	<line x1="431" y1="288" x2="431" y2="406" stroke="#66bd63" stroke-width="2"/>
	<g>
		<path d="M465 381 a14 14 90 0 1 14 14 V406 h-96 V395 a14 14 90 0 1 14 -14" fill="#a6d96a" stroke="#a6d96a" stroke-width="0"/>
		<path d="M479 406 v11 a14 14 90 0 1 -14 14 H397 a14 14 90 0 1 -14 -14 V406 H96" fill="#d9ef8b" stroke="#d9ef8b" stroke-width="0"/>
		<rect x="383" y="381" width="96" height="50" fill="none" rx="14" stroke="#66bd63" stroke-width="2"/>
		<line x1="383" y1="406" x2="479" y2="406" stroke="#66bd63" stroke-width="1"/>
		<text x="390" y="398.75" fill="#000000" font-family="Verdana" font-size="12">TRANSFERED</text>
	</g>
	<text x="484" y="423" fill="#d73027" font-family="Verdana" font-size="12">0,N</text>
	<text x="436" y="330" fill="#d73027" font-family="Verdana" font-size="12">1,1</text>
</g>

<!-- Association DOES -->
<g>
	<line x1="672" y1="288" x2="672" y2="406" stroke="#66bd63" stroke-width="2"/>
	<line x1="559" y1="406" x2="672" y2="406" stroke="#66bd63" stroke-width="2"/>
	<g>
		<path d="M683 381 a14 14 90 0 1 14 14 V406 h-50 V395 a14 14 90 0 1 14 -14" fill="#a6d96a" stroke="#a6d96a" stroke-width="0"/>
		<path d="M697 406 v11 a14 14 90 0 1 -14 14 H661 a14 14 90 0 1 -14 -14 V406 H50" fill="#d9ef8b" stroke="#d9ef8b" stroke-width="0"/>
		<rect x="647" y="381" width="50" height="50" fill="none" rx="14" stroke="#66bd63" stroke-width="2"/>
		<line x1="647" y1="406" x2="697" y2="406" stroke="#66bd63" stroke-width="1"/>
		<text x="655" y="398.75" fill="#000000" font-family="Verdana" font-size="12">DOES</text>
	</g>
	<text x="677" y="356" fill="#d73027" font-family="Verdana" font-size="12">0,N</text>
	<text x="612" y="423" fill="#d73027" font-family="Verdana" font-size="12">1,1</text>
</g>

<!-- Entity AUTHORS -->
<g>
	<g>
		<rect x="21" y="18" width="76" height="25" fill="#fdae61" stroke="none" stroke-width="0" opacity="1"/>
		<rect x="21" y="43" width="76" height="59" fill="#fee08b" stroke="none" stroke-width="0" opacity="1"/>
		<rect x="21" y="18" width="76" height="84" fill="none" stroke="#f46d43" stroke-width="2" opacity="1"/>
		<line x1="21" y1="43" x2="97" y2="43" stroke="#f46d43" stroke-width="1"/>
	</g>
	<text x="29" y="35.75" fill="#000000" font-family="Verdana" font-size="12">AUTHORS</text>
	<text x="26" y="60.8" fill="#000000" font-family="Verdana" font-size="12">id_author</text>
	<line x1="26" y1="63" x2="85" y2="63" stroke="#000000" stroke-width="1"/>
	<text x="26" y="77.8" fill="#000000" font-family="Verdana" font-size="12">first_name</text>
	<text x="26" y="94.8" fill="#000000" font-family="Verdana" font-size="12">last_name</text>
</g>

<!-- Entity BOOKS -->
<g>
	<g>
		<rect x="269" y="9" width="90" height="25" fill="#fdae61" stroke="none" stroke-width="0" opacity="1"/>
		<rect x="269" y="34" width="90" height="77" fill="#fee08b" stroke="none" stroke-width="0" opacity="1"/>
		<rect x="269" y="9" width="90" height="102" fill="none" stroke="#f46d43" stroke-width="2" opacity="1"/>
		<line x1="269" y1="34" x2="359" y2="34" stroke="#f46d43" stroke-width="1"/>
	</g>
	<text x="292" y="26.75" fill="#000000" font-family="Verdana" font-size="12">BOOKS</text>
	<text x="274" y="51.8" fill="#000000" font-family="Verdana" font-size="12">isbn</text>
	<line x1="274" y1="54" x2="300" y2="54" stroke="#000000" stroke-width="1"/>
	<text x="274" y="68.8" fill="#000000" font-family="Verdana" font-size="12">title</text>
	<text x="274" y="85.8" fill="#000000" font-family="Verdana" font-size="12">release_date</text>
	<text x="274" y="102.8" fill="#000000" font-family="Verdana" font-size="12">collection</text>
</g>

<!-- Entity EVENTS -->
<g>
	<g>
		<rect x="640" y="18" width="64" height="25" fill="#fdae61" stroke="none" stroke-width="0" opacity="1"/>
		<rect x="640" y="43" width="64" height="59" fill="#fee08b" stroke="none" stroke-width="0" opacity="1"/>
		<rect x="640" y="18" width="64" height="84" fill="none" stroke="#f46d43" stroke-width="2" opacity="1"/>
		<line x1="640" y1="43" x2="704" y2="43" stroke="#f46d43" stroke-width="1"/>
	</g>
	<text x="648" y="35.75" fill="#000000" font-family="Verdana" font-size="12">EVENTS</text>
	<text x="645" y="60.8" fill="#000000" font-family="Verdana" font-size="12">id_event</text>
	<line x1="645" y1="63" x2="698" y2="63" stroke="#000000" stroke-width="1"/>
	<text x="645" y="77.8" fill="#000000" font-family="Verdana" font-size="12">type</text>
	<text x="645" y="94.8" fill="#000000" font-family="Verdana" font-size="12">date</text>
</g>

<!-- Entity PUBLISHERS -->
<g>
	<g>
		<rect x="15" y="127" width="88" height="25" fill="#fdae61" stroke="none" stroke-width="0" opacity="1"/>
		<rect x="15" y="152" width="88" height="43" fill="#fee08b" stroke="none" stroke-width="0" opacity="1"/>
		<rect x="15" y="127" width="88" height="68" fill="none" stroke="#f46d43" stroke-width="2" opacity="1"/>
		<line x1="15" y1="152" x2="103" y2="152" stroke="#f46d43" stroke-width="1"/>
	</g>
	<text x="20" y="144.75" fill="#000000" font-family="Verdana" font-size="12">PUBLISHERS</text>
	<text x="20" y="169.8" fill="#000000" font-family="Verdana" font-size="12">id_publisher</text>
	<line x1="20" y1="172" x2="95" y2="172" stroke="#000000" stroke-width="1"/>
	<text x="20" y="186.8" fill="#000000" font-family="Verdana" font-size="12">name</text>
</g>

<!-- Entity LIBRARIES -->
<g>
	<g>
		<rect x="520" y="110" width="78" height="25" fill="#fdae61" stroke="none" stroke-width="0" opacity="1"/>
		<rect x="520" y="135" width="78" height="77" fill="#fee08b" stroke="none" stroke-width="0" opacity="1"/>
		<rect x="520" y="110" width="78" height="102" fill="none" stroke="#f46d43" stroke-width="2" opacity="1"/>
		<line x1="520" y1="135" x2="598" y2="135" stroke="#f46d43" stroke-width="1"/>
	</g>
	<text x="526" y="127.75" fill="#000000" font-family="Verdana" font-size="12">LIBRARIES</text>
	<text x="525" y="152.8" fill="#000000" font-family="Verdana" font-size="12">id_library</text>
	<line x1="525" y1="155" x2="583" y2="155" stroke="#000000" stroke-width="1"/>
	<text x="525" y="169.8" fill="#000000" font-family="Verdana" font-size="12">name</text>
	<text x="525" y="186.8" fill="#000000" font-family="Verdana" font-size="12">address</text>
	<text x="525" y="203.8" fill="#000000" font-family="Verdana" font-size="12">region</text>
</g>

<!-- Entity LENDINGS -->
<g>
	<g>
		<rect x="149" y="237" width="78" height="25" fill="#fdae61" stroke="none" stroke-width="0" opacity="1"/>
		<rect x="149" y="262" width="78" height="77" fill="#fee08b" stroke="none" stroke-width="0" opacity="1"/>
		<rect x="149" y="237" width="78" height="102" fill="none" stroke="#f46d43" stroke-width="2" opacity="1"/>
		<line x1="149" y1="262" x2="227" y2="262" stroke="#f46d43" stroke-width="1"/>
	</g>
	<text x="156" y="254.75" fill="#000000" font-family="Verdana" font-size="12">LENDINGS</text>
	<text x="154" y="279.8" fill="#000000" font-family="Verdana" font-size="12">id_lending</text>
	<line x1="154" y1="282" x2="217" y2="282" stroke="#000000" stroke-width="1"/>
	<text x="154" y="296.8" fill="#000000" font-family="Verdana" font-size="12">begin_date</text>
	<text x="154" y="313.8" fill="#000000" font-family="Verdana" font-size="12">end_date</text>
	<text x="154" y="330.8" fill="#000000" font-family="Verdana" font-size="12">returned</text>
</g>

<!-- Entity ORDERS -->
<g>
	<g>
		<rect x="400" y="263" width="62" height="25" fill="#fdae61" stroke="none" stroke-width="0" opacity="1"/>
		<rect x="400" y="288" width="62" height="25" fill="#fee08b" stroke="none" stroke-width="0" opacity="1"/>
		<rect x="400" y="263" width="62" height="50" fill="none" stroke="#f46d43" stroke-width="2" opacity="1"/>
		<line x1="400" y1="288" x2="462" y2="288" stroke="#f46d43" stroke-width="1"/>
	</g>
	<text x="405" y="280.75" fill="#000000" font-family="Verdana" font-size="12">ORDERS</text>
	<text x="405" y="305.8" fill="#000000" font-family="Verdana" font-size="12">id_order</text>
	<line x1="405" y1="308" x2="457" y2="308" stroke="#000000" stroke-width="1"/>
</g>

<!-- Entity EMPLOYEES -->
<g>
	<g>
		<rect x="628" y="237" width="88" height="25" fill="#fdae61" stroke="none" stroke-width="0" opacity="1"/>
		<rect x="628" y="262" width="88" height="77" fill="#fee08b" stroke="none" stroke-width="0" opacity="1"/>
		<rect x="628" y="237" width="88" height="102" fill="none" stroke="#f46d43" stroke-width="2" opacity="1"/>
		<line x1="628" y1="262" x2="716" y2="262" stroke="#f46d43" stroke-width="1"/>
	</g>
	<text x="636" y="254.75" fill="#000000" font-family="Verdana" font-size="12">EMPLOYEES</text>
	<text x="633" y="279.8" fill="#000000" font-family="Verdana" font-size="12">id_employee</text>
	<line x1="633" y1="282" x2="711" y2="282" stroke="#000000" stroke-width="1"/>
	<text x="633" y="296.8" fill="#000000" font-family="Verdana" font-size="12">first_name</text>
	<text x="633" y="313.8" fill="#000000" font-family="Verdana" font-size="12">last_name</text>
	<text x="633" y="330.8" fill="#000000" font-family="Verdana" font-size="12">is_present</text>
</g>

<!-- Entity SUBSCRIBERS -->
<g>
	<g>
		<rect x="9" y="355" width="100" height="25" fill="#fdae61" stroke="none" stroke-width="0" opacity="1"/>
		<rect x="9" y="380" width="100" height="77" fill="#fee08b" stroke="none" stroke-width="0" opacity="1"/>
		<rect x="9" y="355" width="100" height="102" fill="none" stroke="#f46d43" stroke-width="2" opacity="1"/>
		<line x1="9" y1="380" x2="109" y2="380" stroke="#f46d43" stroke-width="1"/>
	</g>
	<text x="15" y="372.75" fill="#000000" font-family="Verdana" font-size="12">SUBSCRIBERS</text>
	<text x="14" y="397.8" fill="#000000" font-family="Verdana" font-size="12">email</text>
	<line x1="14" y1="400" x2="48" y2="400" stroke="#000000" stroke-width="1"/>
	<text x="14" y="414.8" fill="#000000" font-family="Verdana" font-size="12">first_name</text>
	<text x="14" y="431.8" fill="#000000" font-family="Verdana" font-size="12">last_name</text>
	<text x="14" y="448.8" fill="#000000" font-family="Verdana" font-size="12">dob</text>
</g>

<!-- Entity TRANSFERTS -->
<g>
	<g>
		<rect x="511" y="364" width="96" height="25" fill="#fdae61" stroke="none" stroke-width="0" opacity="1"/>
		<rect x="511" y="389" width="96" height="59" fill="#fee08b" stroke="none" stroke-width="0" opacity="1"/>
		<rect x="511" y="364" width="96" height="84" fill="none" stroke="#f46d43" stroke-width="2" opacity="1"/>
		<line x1="511" y1="389" x2="607" y2="389" stroke="#f46d43" stroke-width="1"/>
	</g>
	<text x="519" y="381.75" fill="#000000" font-family="Verdana" font-size="12">TRANSFERTS</text>
	<text x="516" y="406.8" fill="#000000" font-family="Verdana" font-size="12">id_transfert</text>
	<line x1="516" y1="409" x2="588" y2="409" stroke="#000000" stroke-width="1"/>
	<text x="516" y="423.8" fill="#000000" font-family="Verdana" font-size="12">date_sent</text>
	<text x="516" y="440.8" fill="#000000" font-family="Verdana" font-size="12">date_received</text>
</g>
</svg>